# xmcd
#
# Track frame offsets: 
#        150
#        24176
#        44849
#        64666
#        82760
#        101798
#        119272
#        138494
#        157849
#        177816
#        209500
#        232269
#        249482
#        266566
#
# Disc length: 3799 seconds
#
# Revision: 0
# Processed by: cddbd v1.5.2PL0 Copyright (c) Steve Scherf et al.
# Submitted via: ExactAudioCopy v1.0b1
#
DISCID=be0ed50e
DTITLE=Various Artist - Ruoc Xuan Ve Nha
DYEAR=2006
DGENRE=Hai Ngoai
TTITLE0=Nhu Quynh, Tam Doan, Luong Tung Quang, The Son - Xuan Que Ta (
TTITLE0=Nhat Trung)
TTITLE1=Tam Doan - Tam Su Ngay Xuan (Hoai An)
TTITLE2=Ngoc Lien - Ruoc Xuan Ve Nha (Nhat Ngan)
TTITLE3=Tran Thai Hoa - Nho Mot Chieu Xuan (Nguyen Van Don)
TTITLE4=Bao Han, Nhu Loan, Ho Le Thu, La Suong Suong, Minh Tuyet, Tam 
TTITLE4=Doan,... - Lien Khuc Vui Ca (Nguyen Hien) and Chuc Mung Xuan (Th
TTITLE4=anh
TTITLE5=The Son - Mai Le Xuan (Song Ngoc, Hoai Linh)
TTITLE6=Loan Chau - Mong Chieu Xuan (Ngoc Bich)
TTITLE7=Truong Vu - Chuyen Ngay Cuoi Nam (Song Ngoc)
TTITLE8=Quang Le - Mung Tuoi Me (Tran Long An)
TTITLE9=Huong Lan - Canh Thiep Dau Xuan (Tan Nhac: Le Dinh, Co Nhac: H
TTITLE9=oang Song Viet)
TTITLE10=Manh Quynh - Mua Xuan La Kho (Tran Thien Thanh)
TTITLE11=Huong Thuy - Doan Xuan Ca (Thanh Son)
TTITLE12=Truong Vu - Mua Xuan Do Co Em (Anh Viet Thu)
TTITLE13=Be Xuan Mai - Lien Khuc Mua Xuan Oi (Nguyen Ngoc Thien) and Nga
TTITLE13=y Tet Que Em (Tu Huy)
EXTD=
EXTT0=
EXTT1=
EXTT2=
EXTT3=
EXTT4=
EXTT5=
EXTT6=
EXTT7=
EXTT8=
EXTT9=
EXTT10=
EXTT11=
EXTT12=
EXTT13=
PLAYORDER=
